<?xml version="1.0" standalone="no"?>
<!DOCTYPE svg PUBLIC "-//W3C//DTD SVG 20010904//EN"
 "http://www.w3.org/TR/2001/REC-SVG-20010904/DTD/svg10.dtd">
<svg version="1.0" xmlns="http://www.w3.org/2000/svg"
 width="668.000000pt" height="668.000000pt" viewBox="0 0 668.000000 668.000000"
 preserveAspectRatio="xMidYMid meet">
<metadata>
Created by potrace 1.11, written by Peter Selinger 2001-2013
</metadata>
<g transform="translate(0.000000,668.000000) scale(0.100000,-0.100000)"
fill="#000000" stroke="none">
<path d="M3667 6654 c-1 -1 -38 -4 -82 -7 -44 -3 -111 -15 -150 -25 -118 -33
-339 -104 -366 -118 -31 -15 -93 -38 -164 -61 -27 -8 -79 -30 -115 -47 -36
-18 -81 -38 -100 -46 -82 -30 -218 -106 -299 -165 -47 -36 -97 -73 -110 -82
-71 -51 -129 -103 -256 -229 -150 -149 -187 -189 -224 -244 -13 -19 -36 -47
-49 -62 -14 -16 -22 -28 -18 -28 4 0 -4 -10 -17 -22 -27 -26 -96 -125 -122
-177 -10 -19 -33 -57 -53 -85 -34 -48 -162 -295 -162 -312 0 -4 -18 -44 -39
-88 -54 -111 -180 -405 -185 -430 -1 -6 -10 -29 -20 -51 -10 -22 -29 -68 -43
-103 -14 -34 -30 -65 -37 -69 -6 -4 -31 -8 -56 -10 -58 -3 -82 -7 -97 -16 -7
-5 -13 -6 -13 -2 0 7 -77 -32 -112 -58 -15 -11 -24 -25 -21 -30 3 -6 1 -7 -4
-4 -6 4 -17 -1 -24 -10 -10 -12 -10 -14 -1 -9 6 4 12 5 12 1 0 -3 -11 -10 -25
-15 -14 -5 -25 -16 -25 -25 0 -8 -4 -15 -10 -15 -10 0 -45 -60 -42 -72 1 -5
-2 -8 -7 -8 -5 0 -14 -13 -21 -30 -19 -47 -31 -52 -136 -66 -23 -2 -53 -7 -65
-9 -13 -3 -37 -7 -54 -10 -46 -8 -253 -116 -286 -150 -36 -36 -46 -71 -55
-195 -9 -124 -11 -433 -2 -535 3 -44 9 -120 13 -170 4 -49 9 -115 12 -145 3
-30 7 -167 9 -305 2 -137 6 -275 8 -305 20 -214 22 -289 12 -445 -4 -60 -7
-117 -6 -125 1 -8 3 -43 5 -77 3 -60 19 -93 43 -93 15 0 136 -63 144 -75 4 -5
11 -10 15 -10 4 -1 34 -13 66 -28 32 -15 64 -27 72 -27 8 0 18 -6 22 -14 4 -8
19 -17 33 -20 14 -2 52 -18 85 -35 33 -16 96 -39 140 -50 44 -11 112 -33 150
-49 39 -16 84 -32 100 -37 17 -5 33 -9 38 -10 4 -2 8 -3 10 -5 3 -3 38 -10 77
-17 19 -3 38 -10 42 -17 4 -6 8 -7 8 -2 0 5 7 3 15 -4 8 -7 15 -9 15 -5 0 5 9
0 21 -11 12 -10 22 -18 23 -16 0 2 15 -2 31 -9 17 -7 36 -11 43 -10 6 1 12 -3
12 -9 0 -6 3 -9 8 -6 4 2 23 -3 42 -11 19 -9 38 -15 43 -15 4 1 7 -3 7 -9 0
-5 4 -8 9 -4 5 3 12 1 16 -5 4 -6 11 -8 16 -5 5 4 9 1 9 -5 0 -6 5 -8 10 -5 6
3 10 2 10 -4 0 -6 7 -8 15 -5 8 4 15 1 15 -5 0 -6 3 -10 8 -9 11 3 83 -12 101
-22 24 -13 55 -23 63 -22 4 1 20 -3 35 -10 15 -6 39 -13 53 -15 13 -2 30 -8
36 -14 6 -5 23 -10 38 -11 14 -1 26 -6 26 -10 0 -4 7 -5 15 -2 8 4 15 2 15 -3
0 -5 6 -10 13 -10 6 0 63 -19 125 -41 62 -23 116 -42 120 -43 4 -1 17 -5 28
-10 12 -4 39 -11 60 -15 22 -3 45 -11 51 -16 7 -6 19 -8 27 -5 8 3 16 1 18 -5
2 -6 13 -13 24 -14 12 -2 110 -33 220 -69 109 -37 206 -68 214 -70 58 -13 82
-20 140 -38 36 -12 68 -27 73 -34 4 -6 21 -14 38 -18 16 -4 42 -18 56 -31 16
-15 38 -24 58 -24 33 0 138 -18 165 -27 8 -4 22 -8 30 -10 8 -2 22 -5 30 -8 8
-2 15 -4 15 -5 0 -2 24 -7 91 -18 56 -10 101 -27 114 -44 3 -3 19 -8 35 -11
17 -3 46 -11 65 -17 86 -28 159 -22 258 22 26 12 50 21 55 20 4 -1 7 2 7 6 0
4 46 30 103 57 56 28 104 52 107 55 3 3 71 38 153 78 81 40 147 76 147 80 0 5
6 9 13 9 7 0 44 20 82 45 39 25 115 67 170 93 55 26 124 63 153 81 29 19 54
34 57 34 2 0 21 12 42 26 21 14 59 35 86 46 26 11 47 25 47 31 0 6 3 7 6 4 9
-8 73 29 207 120 60 40 147 92 195 115 87 42 111 56 342 206 69 44 143 88 165
98 90 38 145 67 145 75 0 5 5 9 11 9 6 0 25 11 43 25 18 14 36 23 39 20 4 -3
5 -2 2 1 -5 8 111 84 128 84 25 0 44 37 45 86 1 46 5 109 18 279 11 154 14
231 17 500 2 154 9 309 15 345 6 36 14 80 16 98 2 18 9 54 15 80 33 154 42
204 47 267 3 39 7 93 10 120 2 28 7 86 10 130 2 44 7 86 9 93 3 7 7 45 11 85
3 40 7 83 10 97 2 14 7 95 10 180 l6 155 -72 55 c-39 30 -99 74 -133 97 -54
37 -89 73 -72 73 3 0 -4 18 -15 40 -26 50 -87 120 -106 120 -8 0 -14 5 -14 10
0 6 -9 10 -20 10 -11 0 -20 4 -20 8 0 26 -105 45 -245 45 -106 0 -95 -14 -150
179 -20 70 -43 140 -51 156 -8 16 -19 56 -25 88 -10 56 -64 173 -135 295 -18
30 -75 138 -127 240 -131 257 -196 380 -218 411 -11 14 -19 30 -19 35 0 5 -12
25 -26 44 -14 19 -37 57 -51 84 -66 130 -197 295 -227 286 -5 -2 -12 1 -15 6
-3 4 -19 17 -36 29 -16 11 -55 38 -85 59 -114 81 -138 93 -265 143 -111 43
-251 92 -305 107 -8 2 -40 11 -71 19 -85 23 -139 28 -327 30 -95 0 -174 1
-175 0z"/>
</g>
</svg>
